# xmcd
#
# Track frame offsets: 
#        150
#        4786
#        28066
#        41085
#        64541
#        70620
#        93119
#        106437
#        118967
#        130363
#        135258
#        165472
#        176679
#        193975
#        201281
#        223383
#        236882
#        257050
#        263564
#        289961
#        310285
#
# Disc length: 4313 seconds
#
# Revision: 0
# Processed by: cddbd v1.5.2PL0 Copyright (c) Steve Scherf et al.
# Submitted via: ExactAudioCopy v0.99pb4
#
DISCID=3f10d715
DTITLE=Hank Williams - Mother's Best [CD4]
DYEAR=1951
DGENRE=Country
TTITLE0=Mother's Best 4-B2
TTITLE1=May You Never Be Alone Like Me
TTITLE2=My Love For You (Audrey)
TTITLE3=Dear Brother
TTITLE4=Mother's Best 5-A1
TTITLE5=They'll Never Take Her Love From Me
TTITLE6=Last Night I heard You Cryin' In Your Sleep (Audrey)
TTITLE7=Wait For The Light To Shine
TTITLE8=Whistlin' Rufus
TTITLE9=Mother's Best 5-A2
TTITLE10=Cool Water
TTITLE11=Orange Blossom Special
TTITLE12=Lonely Tombs
TTITLE13=Mother's Best 5-B1
TTITLE14=I Just Don't Like This Kind Of Livin'
TTITLE15=You Don't Have To Be a Baby To Cry (Audrey)
TTITLE16=Jesus Remembered Me
TTITLE17=Mother's Best 5-B2
TTITLE18=Cold Cold Heart
TTITLE19=Honky Tonkin' (Audrey)
TTITLE20=Sally Goodin' (Hank and Louie Buck Call A Square Dance)
EXTD=
EXTT0=
EXTT1=
EXTT2=
EXTT3=
EXTT4=
EXTT5=
EXTT6=
EXTT7=
EXTT8=
EXTT9=
EXTT10=
EXTT11=
EXTT12=
EXTT13=
EXTT14=
EXTT15=
EXTT16=
EXTT17=
EXTT18=
EXTT19=
EXTT20=
PLAYORDER=
